<?xml version="1.0" standalone="no"?>
<!DOCTYPE svg PUBLIC "-//W3C//DTD SVG 20010904//EN"
 "http://www.w3.org/TR/2001/REC-SVG-20010904/DTD/svg10.dtd">
<svg version="1.0" xmlns="http://www.w3.org/2000/svg"
 width="567.000000pt" height="486.000000pt" viewBox="0 0 567.000000 486.000000"
 preserveAspectRatio="xMidYMid meet">

<g transform="translate(0.000000,486.000000) scale(0.100000,-0.100000)"
fill="#000000" stroke="none">
<path d="M1480 2440 l0 -520 85 0 85 0 2 238 3 237 205 0 c199 0 206 -1 244
-24 77 -48 95 -154 39 -222 -43 -51 -70 -59 -198 -59 l-115 0 0 -86 0 -86 153
4 c134 3 157 6 194 26 177 94 224 332 97 497 l-33 44 29 57 c73 137 15 320
-122 388 -48 24 -62 26 -185 26 l-133 0 0 -85 0 -85 116 0 116 0 34 -34 c37
-37 45 -82 23 -129 -23 -51 -50 -57 -268 -57 l-201 0 0 195 0 195 -85 0 -85 0
0 -520z"/>
<path d="M2530 2660 c0 -330 5 -368 56 -478 122 -255 444 -341 683 -181 76 50
113 94 156 184 50 106 55 146 55 475 l0 300 -85 0 -85 0 0 -294 c0 -267 -2
-300 -20 -359 -26 -84 -98 -167 -168 -194 -56 -22 -169 -24 -226 -4 -59 20
-129 91 -162 164 -29 62 -29 63 -32 290 l-4 227 221 0 221 0 0 85 0 85 -305 0
-305 0 0 -300z"/>
<path d="M3873 2941 c-209 -72 -272 -332 -115 -473 23 -21 86 -60 139 -87 181
-91 226 -140 200 -218 -18 -55 -59 -73 -169 -73 l-88 0 0 85 0 85 -85 0 -85 0
0 -170 0 -170 180 0 c156 0 186 3 234 20 112 42 190 158 190 280 -1 124 -59
190 -263 295 -72 38 -141 79 -152 93 -24 31 -24 67 -1 111 28 53 72 71 169 71
l83 0 0 -85 0 -85 85 0 85 0 0 170 0 170 -177 0 c-144 -1 -188 -4 -230 -19z"/>
</g>
</svg>
